<?xml version="1.0" encoding="UTF-8" standalone="no"?>
<!DOCTYPE svg PUBLIC "-//W3C//DTD SVG 1.1//EN" "http://www.w3.org/Graphics/SVG/1.1/DTD/svg11.dtd">
<svg width="100%" height="100%" viewBox="0 0 895 145" version="1.1" xmlns="http://www.w3.org/2000/svg" xmlns:xlink="http://www.w3.org/1999/xlink" xml:space="preserve" xmlns:serif="http://www.serif.com/" style="fill-rule:evenodd;clip-rule:evenodd;stroke-linejoin:round;stroke-miterlimit:2;">
    <g transform="matrix(1,0,0,1,-62.9542,-62.9667)">
        <g transform="matrix(4.16667,0,0,4.16667,0,0)">
            <path d="M40.101,28.907L40.101,38.059C40.101,45.339 36.038,49.528 29.596,49.908L29.596,45.308C31.131,45.091 32.288,44.54 33.082,43.724C33.858,42.926 34.283,41.703 34.395,40.428C34.396,40.402 34.399,39.772 34.402,39.745L29.088,39.745L29.088,28.907L40.101,28.907Z" style="fill:rgb(192,48,26);fill-rule:nonzero;"/>
        </g>
        <g transform="matrix(4.16667,0,0,4.16667,0,0)">
            <rect x="29.088" y="15.112" width="11.013" height="10.846" style="fill:rgb(128,128,131);fill-rule:nonzero;"/>
        </g>
        <g transform="matrix(4.16667,0,0,4.16667,0,0)">
            <rect x="15.109" y="15.112" width="11.012" height="10.846" style="fill:rgb(128,128,131);fill-rule:nonzero;"/>
        </g>
        <g transform="matrix(4.16667,0,0,4.16667,0,0)">
            <rect x="15.109" y="28.907" width="11.012" height="10.846" style="fill:rgb(128,128,131);fill-rule:nonzero;"/>
        </g>
        <g transform="matrix(4.16667,0,0,4.16667,0,0)">
            <path d="M46.094,28.92L49.448,28.92L51.983,36.374L52.013,36.374L54.411,28.92L57.765,28.92L57.765,39.759L55.534,39.759L55.534,32.077L55.504,32.077L52.848,39.759L51.012,39.759L48.354,32.155L48.325,32.155L48.325,39.759L46.094,39.759L46.094,28.92Z" style="fill:rgb(128,128,131);fill-rule:nonzero;"/>
        </g>
        <g transform="matrix(4.16667,0,0,4.16667,0,0)">
            <path d="M70.241,37.208C70.254,38.15 71.044,38.53 71.894,38.53C72.517,38.53 73.305,38.287 73.305,37.528C73.305,36.874 72.411,36.647 70.862,36.313C69.617,36.04 68.373,35.599 68.373,34.217C68.373,32.213 70.103,31.698 71.787,31.698C73.504,31.698 75.082,32.275 75.248,34.202L73.2,34.202C73.138,33.368 72.501,33.14 71.727,33.14C71.241,33.14 70.528,33.231 70.528,33.868C70.528,34.643 71.742,34.749 72.972,35.038C74.231,35.326 75.46,35.781 75.46,37.239C75.46,39.303 73.67,39.97 71.879,39.97C70.057,39.97 68.282,39.288 68.19,37.208L70.241,37.208Z" style="fill:rgb(128,128,131);fill-rule:nonzero;"/>
        </g>
        <g transform="matrix(4.16667,0,0,4.16667,0,0)">
            <path d="M79.454,31.91L81.032,31.91L81.032,33.352L79.454,33.352L79.454,37.239C79.454,37.968 79.635,38.15 80.363,38.15C80.59,38.15 80.804,38.134 81.032,38.088L81.032,39.773C80.667,39.834 80.197,39.85 79.772,39.85C78.451,39.85 77.297,39.545 77.297,37.982L77.297,33.352L75.992,33.352L75.992,31.91L77.297,31.91L77.297,29.558L79.454,29.558L79.454,31.91Z" style="fill:rgb(128,128,131);fill-rule:nonzero;"/>
        </g>
        <g transform="matrix(4.16667,0,0,4.16667,0,0)">
            <path d="M83.734,37.208C83.748,38.15 84.538,38.53 85.388,38.53C86.01,38.53 86.799,38.287 86.799,37.528C86.799,36.874 85.903,36.647 84.355,36.313C83.11,36.04 81.866,35.599 81.866,34.217C81.866,32.213 83.597,31.698 85.281,31.698C86.997,31.698 88.575,32.275 88.742,34.202L86.693,34.202C86.632,33.368 85.994,33.14 85.221,33.14C84.735,33.14 84.022,33.231 84.022,33.868C84.022,34.643 85.237,34.749 86.464,35.038C87.725,35.326 88.954,35.781 88.954,37.239C88.954,39.303 87.163,39.97 85.373,39.97C83.551,39.97 81.775,39.288 81.684,37.208L83.734,37.208Z" style="fill:rgb(128,128,131);fill-rule:nonzero;"/>
        </g>
        <g transform="matrix(4.16667,0,0,4.16667,0,0)">
            <path d="M90.412,28.92L92.566,28.92L92.566,34.733L95.284,31.91L97.835,31.91L94.874,34.795L98.167,39.759L95.557,39.759L93.402,36.252L92.566,37.057L92.566,39.759L90.412,39.759L90.412,28.92Z" style="fill:rgb(128,128,131);fill-rule:nonzero;"/>
        </g>
        <g transform="matrix(4.16667,0,0,4.16667,0,0)">
            <path d="M111.534,28.92L113.688,28.92L113.688,34.733L116.407,31.91L118.956,31.91L115.997,34.795L119.29,39.759L116.679,39.759L114.524,36.252L113.688,37.057L113.688,39.759L111.534,39.759L111.534,28.92Z" style="fill:rgb(128,128,131);fill-rule:nonzero;"/>
        </g>
        <g transform="matrix(4.16667,0,0,4.16667,0,0)">
            <path d="M120.049,31.91L122.098,31.91L122.098,33.004L122.144,33.004C122.69,32.123 123.632,31.698 124.541,31.698C126.833,31.698 127.411,32.988 127.411,34.931L127.411,39.759L125.254,39.759L125.254,35.326C125.254,34.036 124.875,33.399 123.875,33.399C122.705,33.399 122.203,34.051 122.203,35.644L122.203,39.759L120.049,39.759L120.049,31.91Z" style="fill:rgb(128,128,131);fill-rule:nonzero;"/>
        </g>
        <g transform="matrix(4.16667,0,0,4.16667,0,0)">
            <path d="M131.515,30.815L129.359,30.815L129.359,28.92L131.515,28.92L131.515,30.815ZM129.359,31.91L131.515,31.91L131.515,39.759L129.359,39.759L129.359,31.91Z" style="fill:rgb(128,128,131);fill-rule:nonzero;"/>
        </g>
        <g transform="matrix(4.16667,0,0,4.16667,0,0)">
            <path d="M133.463,28.92L135.619,28.92L135.619,33.004L135.664,33.004C136.209,32.123 137.152,31.698 137.957,31.698C140.248,31.698 140.826,32.988 140.826,34.931L140.826,39.759L138.669,39.759L138.669,35.326C138.669,34.036 138.29,33.399 137.289,33.399C136.12,33.399 135.619,34.051 135.619,35.644L135.619,39.759L133.463,39.759L133.463,28.92Z" style="fill:rgb(128,128,131);fill-rule:nonzero;"/>
        </g>
        <g transform="matrix(4.16667,0,0,4.16667,0,0)">
            <path d="M146.274,31.698C148.748,31.698 150.342,33.338 150.342,35.842C150.342,38.332 148.748,39.97 146.274,39.97C143.816,39.97 142.221,38.332 142.221,35.842C142.221,33.338 143.816,31.698 146.274,31.698ZM146.274,38.346C147.747,38.346 148.187,37.087 148.187,35.842C148.187,34.581 147.747,33.322 146.274,33.322C144.817,33.322 144.376,34.581 144.376,35.842C144.376,37.087 144.817,38.346 146.274,38.346Z" style="fill:rgb(128,128,131);fill-rule:nonzero;"/>
        </g>
        <g transform="matrix(4.16667,0,0,4.16667,0,0)">
            <path d="M155.581,39.759L153.182,39.759L150.497,31.91L152.757,31.91L154.412,37.269L154.443,37.269L156.098,31.91L158.237,31.91L155.581,39.759Z" style="fill:rgb(128,128,131);fill-rule:nonzero;"/>
        </g>
        <g transform="matrix(4.16667,0,0,4.16667,0,0)">
            <path d="M159.133,31.91L161.182,31.91L161.182,33.004L161.227,33.004C161.773,32.123 162.714,31.698 163.626,31.698C165.917,31.698 166.494,32.988 166.494,34.931L166.494,39.759L164.338,39.759L164.338,35.326C164.338,34.036 163.959,33.399 162.958,33.399C161.789,33.399 161.289,34.051 161.289,35.644L161.289,39.759L159.133,39.759L159.133,31.91Z" style="fill:rgb(128,128,131);fill-rule:nonzero;"/>
        </g>
        <g transform="matrix(4.16667,0,0,4.16667,0,0)">
            <path d="M168.043,34.325C168.164,32.305 169.971,31.698 171.731,31.698C173.294,31.698 175.177,32.047 175.177,33.929L175.177,38.012C175.177,38.726 175.252,39.439 175.45,39.759L173.264,39.759C173.187,39.516 173.128,39.257 173.112,39C172.429,39.713 171.427,39.97 170.472,39.97C168.984,39.97 167.8,39.227 167.8,37.619C167.8,35.842 169.136,35.418 170.472,35.235C171.79,35.038 173.021,35.084 173.021,34.202C173.021,33.277 172.384,33.14 171.624,33.14C170.805,33.14 170.274,33.475 170.197,34.325L168.043,34.325ZM173.021,35.919C172.658,36.237 171.897,36.252 171.229,36.374C170.562,36.51 169.956,36.738 169.956,37.528C169.956,38.332 170.577,38.53 171.275,38.53C172.96,38.53 173.021,37.193 173.021,36.723L173.021,35.919Z" style="fill:rgb(128,128,131);fill-rule:nonzero;"/>
        </g>
        <g transform="matrix(4.16667,0,0,4.16667,0,0)">
            <path d="M98.456,34.325C98.576,32.305 100.382,31.698 102.143,31.698C103.707,31.698 105.588,32.047 105.588,33.929L105.588,38.012C105.588,38.726 105.664,39.439 105.862,39.759L103.676,39.759C103.599,39.516 103.539,39.257 103.524,39C102.841,39.713 101.838,39.97 100.883,39.97C99.394,39.97 98.211,39.227 98.211,37.619C98.211,35.842 99.547,35.418 100.883,35.235C102.202,35.038 103.433,35.084 103.433,34.202C103.433,33.277 102.795,33.14 102.037,33.14C101.216,33.14 100.686,33.475 100.609,34.325L98.456,34.325ZM103.433,35.919C103.069,36.237 102.31,36.252 101.641,36.374C100.975,36.51 100.367,36.738 100.367,37.528C100.367,38.332 100.988,38.53 101.686,38.53C103.372,38.53 103.433,37.193 103.433,36.723L103.433,35.919Z" style="fill:rgb(128,128,131);fill-rule:nonzero;"/>
        </g>
        <g transform="matrix(4.16667,0,0,4.16667,0,0)">
            <path d="M184.411,39.759L182.014,39.759L179.326,31.91L181.587,31.91L183.242,37.269L183.272,37.269L184.927,31.91L187.067,31.91L184.411,39.759Z" style="fill:rgb(128,128,131);fill-rule:nonzero;"/>
        </g>
        <g transform="matrix(4.16667,0,0,4.16667,0,0)">
            <path d="M191.114,28.92L195.804,28.92C198.505,28.92 199.552,30.636 199.552,32.396C199.552,34.158 198.505,35.873 195.804,35.873L193.497,35.873L193.497,39.759L191.114,39.759L191.114,28.92ZM193.497,34.02L195.149,34.02C196.258,34.02 197.245,33.777 197.245,32.396C197.245,31.016 196.258,30.772 195.149,30.772L193.497,30.772L193.497,34.02Z" style="fill:rgb(128,128,131);fill-rule:nonzero;"/>
        </g>
        <g transform="matrix(4.16667,0,0,4.16667,0,0)">
            <path d="M200.562,31.91L202.611,31.91L202.611,33.368L202.642,33.368C203.036,32.381 204.099,31.698 205.146,31.698C205.298,31.698 205.481,31.728 205.617,31.775L205.617,33.777C205.419,33.732 205.101,33.702 204.842,33.702C203.264,33.702 202.718,34.84 202.718,36.222L202.718,39.759L200.562,39.759L200.562,31.91Z" style="fill:rgb(128,128,131);fill-rule:nonzero;"/>
        </g>
        <g transform="matrix(4.16667,0,0,4.16667,0,0)">
            <path d="M206.126,34.325C206.248,32.305 208.053,31.698 209.816,31.698C211.379,31.698 213.261,32.047 213.261,33.929L213.261,38.012C213.261,38.726 213.337,39.439 213.534,39.759L211.349,39.759C211.272,39.516 211.213,39.257 211.196,39C210.514,39.713 209.512,39.97 208.556,39.97C207.068,39.97 205.884,39.227 205.884,37.619C205.884,35.842 207.219,35.418 208.556,35.235C209.875,35.038 211.105,35.084 211.105,34.202C211.105,33.277 210.468,33.14 209.709,33.14C208.89,33.14 208.359,33.475 208.282,34.325L206.126,34.325ZM211.105,35.919C210.741,36.237 209.982,36.252 209.314,36.374C208.647,36.51 208.04,36.738 208.04,37.528C208.04,38.332 208.662,38.53 209.36,38.53C211.045,38.53 211.105,37.193 211.105,36.723L211.105,35.919Z" style="fill:rgb(128,128,131);fill-rule:nonzero;"/>
        </g>
        <g transform="matrix(4.16667,0,0,4.16667,0,0)">
            <path d="M214.554,38.134L218.527,33.535L214.748,33.535L214.748,31.91L221.277,31.91L221.277,33.535L217.193,38.134L221.558,38.134L221.558,39.759L214.554,39.759L214.554,38.134Z" style="fill:rgb(128,128,131);fill-rule:nonzero;"/>
        </g>
        <g transform="matrix(4.16667,0,0,4.16667,0,0)">
            <path d="M224.085,36.358C224.147,37.724 224.814,38.346 226.013,38.346C226.878,38.346 227.577,37.815 227.713,37.33L229.611,37.33C229.002,39.182 227.713,39.97 225.937,39.97C223.463,39.97 221.93,38.271 221.93,35.842C221.93,33.49 223.554,31.698 225.937,31.698C228.609,31.698 229.899,33.945 229.747,36.358L224.085,36.358ZM227.591,34.992C227.395,33.899 226.925,33.322 225.876,33.322C224.51,33.322 224.117,34.385 224.085,34.992L227.591,34.992Z" style="fill:rgb(128,128,131);fill-rule:nonzero;"/>
        </g>
        <g transform="matrix(4.16667,0,0,4.16667,0,0)">
            <path d="M61.443,36.358C61.502,37.724 62.17,38.346 63.37,38.346C64.236,38.346 64.935,37.815 65.069,37.33L66.967,37.33C66.36,39.182 65.069,39.97 63.295,39.97C60.821,39.97 59.287,38.271 59.287,35.842C59.287,33.49 60.911,31.698 63.295,31.698C65.966,31.698 67.256,33.945 67.104,36.358L61.443,36.358ZM64.949,34.992C64.751,33.899 64.281,33.322 63.234,33.322C61.868,33.322 61.473,34.385 61.443,34.992L64.949,34.992Z" style="fill:rgb(128,128,131);fill-rule:nonzero;"/>
        </g>
        <g transform="matrix(4.16667,0,0,4.16667,0,0)">
            <path d="M64.154,28.92L63.214,30.091L62.241,28.92L60.534,28.92L62.172,30.957L64.218,30.957L65.856,28.92L64.154,28.92Z" style="fill:rgb(128,128,131);fill-rule:nonzero;"/>
        </g>
        <g transform="matrix(4.16667,0,0,4.16667,0,0)">
            <path d="M104.582,28.92L102.296,28.92L100.959,30.997L102.573,30.997L104.582,28.92Z" style="fill:rgb(128,128,131);fill-rule:nonzero;"/>
        </g>
    </g>
</svg>
