<?xml version="1.0" encoding="UTF-8" standalone="no"?>
<!DOCTYPE svg PUBLIC "-//W3C//DTD SVG 1.1//EN" "http://www.w3.org/Graphics/SVG/1.1/DTD/svg11.dtd">
<svg width="100%" height="100%" viewBox="0 0 396 227" version="1.1" xmlns="http://www.w3.org/2000/svg" xmlns:xlink="http://www.w3.org/1999/xlink" xml:space="preserve" xmlns:serif="http://www.serif.com/" style="fill-rule:evenodd;clip-rule:evenodd;stroke-linejoin:round;stroke-miterlimit:2;">
    <g transform="matrix(1,0,0,1,-595.135,-385.325)">
        <g transform="matrix(1,0,0,1,532.181,-272.454)">
            <g transform="matrix(4.16667,0,0,4.16667,0,0)">
                <path d="M40.101,171.661L40.101,180.814C40.101,188.093 36.038,192.283 29.596,192.663L29.596,188.063C31.131,187.846 32.288,187.294 33.082,186.479C33.858,185.681 34.283,184.458 34.395,183.183C34.396,183.157 34.399,182.526 34.402,182.499L29.088,182.499L29.088,171.661L40.101,171.661Z" style="fill:rgb(192,48,26);fill-rule:nonzero;"/>
            </g>
        </g>
        <g transform="matrix(1,0,0,1,532.181,-272.454)">
            <g transform="matrix(4.16667,0,0,4.16667,0,0)">
                <rect x="29.088" y="157.867" width="11.013" height="10.845" style="fill:white;"/>
            </g>
        </g>
        <g transform="matrix(1,0,0,1,532.181,-272.454)">
            <g transform="matrix(4.16667,0,0,4.16667,0,0)">
                <rect x="15.109" y="157.867" width="11.012" height="10.845" style="fill:white;"/>
            </g>
        </g>
        <g transform="matrix(1,0,0,1,532.181,-272.454)">
            <g transform="matrix(4.16667,0,0,4.16667,0,0)">
                <rect x="15.109" y="171.661" width="11.012" height="10.847" style="fill:white;"/>
            </g>
        </g>
        <g transform="matrix(1,0,0,1,532.181,-272.454)">
            <g transform="matrix(4.16667,0,0,4.16667,0,0)">
                <path d="M46.094,171.674L49.448,171.674L51.983,179.128L52.013,179.128L54.411,171.674L57.765,171.674L57.765,182.514L55.534,182.514L55.534,174.832L55.504,174.832L52.848,182.514L51.012,182.514L48.354,174.909L48.325,174.909L48.325,182.514L46.094,182.514L46.094,171.674Z" style="fill:white;fill-rule:nonzero;"/>
            </g>
        </g>
        <g transform="matrix(1,0,0,1,532.181,-272.454)">
            <g transform="matrix(4.16667,0,0,4.16667,0,0)">
                <path d="M70.241,179.961C70.254,180.905 71.044,181.285 71.894,181.285C72.517,181.285 73.305,181.041 73.305,180.282C73.305,179.628 72.411,179.401 70.862,179.067C69.617,178.794 68.373,178.354 68.373,176.972C68.373,174.968 70.103,174.453 71.787,174.453C73.504,174.453 75.082,175.029 75.248,176.957L73.2,176.957C73.138,176.122 72.501,175.895 71.727,175.895C71.241,175.895 70.528,175.986 70.528,176.622C70.528,177.397 71.742,177.503 72.972,177.792C74.231,178.08 75.46,178.535 75.46,179.993C75.46,182.057 73.67,182.724 71.879,182.724C70.057,182.724 68.282,182.043 68.19,179.961L70.241,179.961Z" style="fill:white;fill-rule:nonzero;"/>
            </g>
        </g>
        <g transform="matrix(1,0,0,1,532.181,-272.454)">
            <g transform="matrix(4.16667,0,0,4.16667,0,0)">
                <path d="M79.454,174.664L81.032,174.664L81.032,176.106L79.454,176.106L79.454,179.993C79.454,180.722 79.635,180.905 80.363,180.905C80.59,180.905 80.804,180.889 81.032,180.843L81.032,182.527C80.667,182.588 80.197,182.604 79.772,182.604C78.451,182.604 77.297,182.299 77.297,180.737L77.297,176.106L75.992,176.106L75.992,174.664L77.297,174.664L77.297,172.312L79.454,172.312L79.454,174.664Z" style="fill:white;fill-rule:nonzero;"/>
            </g>
        </g>
        <g transform="matrix(1,0,0,1,532.181,-272.454)">
            <g transform="matrix(4.16667,0,0,4.16667,0,0)">
                <path d="M83.734,179.961C83.748,180.905 84.538,181.285 85.388,181.285C86.01,181.285 86.799,181.041 86.799,180.282C86.799,179.628 85.903,179.401 84.355,179.067C83.11,178.794 81.866,178.354 81.866,176.972C81.866,174.968 83.597,174.453 85.281,174.453C86.997,174.453 88.575,175.029 88.742,176.957L86.693,176.957C86.632,176.122 85.994,175.895 85.221,175.895C84.735,175.895 84.022,175.986 84.022,176.622C84.022,177.397 85.237,177.503 86.464,177.792C87.725,178.08 88.954,178.535 88.954,179.993C88.954,182.057 87.163,182.724 85.373,182.724C83.551,182.724 81.775,182.043 81.684,179.961L83.734,179.961Z" style="fill:white;fill-rule:nonzero;"/>
            </g>
        </g>
        <g transform="matrix(1,0,0,1,532.181,-272.454)">
            <g transform="matrix(4.16667,0,0,4.16667,0,0)">
                <path d="M90.412,171.674L92.566,171.674L92.566,177.487L95.284,174.664L97.835,174.664L94.874,177.55L98.167,182.514L95.557,182.514L93.402,179.006L92.566,179.812L92.566,182.514L90.412,182.514L90.412,171.674Z" style="fill:white;fill-rule:nonzero;"/>
            </g>
        </g>
        <g transform="matrix(1,0,0,1,532.181,-272.454)">
            <g transform="matrix(4.16667,0,0,4.16667,-272.612,61.6386)">
                <path d="M111.534,171.674L113.688,171.674L113.688,177.487L116.407,174.664L118.956,174.664L115.997,177.55L119.29,182.514L116.679,182.514L114.524,179.006L113.688,179.812L113.688,182.514L111.534,182.514L111.534,171.674Z" style="fill:white;fill-rule:nonzero;"/>
            </g>
        </g>
        <g transform="matrix(1,0,0,1,532.181,-272.454)">
            <g transform="matrix(4.16667,0,0,4.16667,-272.433,61.4989)">
                <path d="M111.534,171.674L113.688,171.674L113.688,177.487L116.407,174.664L118.956,174.664L115.997,177.55L119.29,182.514L116.679,182.514L114.524,179.006L113.688,179.812L113.688,182.514L111.534,182.514L111.534,171.674Z" style="fill:white;fill-rule:nonzero;"/>
            </g>
        </g>
        <g transform="matrix(1,0,0,1,532.181,-272.454)">
            <g transform="matrix(4.16667,0,0,4.16667,-272.612,61.6386)">
                <path d="M120.049,174.664L122.098,174.664L122.098,175.758L122.144,175.758C122.69,174.877 123.632,174.453 124.541,174.453C126.833,174.453 127.411,175.742 127.411,177.686L127.411,182.514L125.254,182.514L125.254,178.08C125.254,176.79 124.875,176.154 123.875,176.154C122.705,176.154 122.203,176.806 122.203,178.399L122.203,182.514L120.049,182.514L120.049,174.664Z" style="fill:white;fill-rule:nonzero;"/>
            </g>
        </g>
        <g transform="matrix(1,0,0,1,532.181,-272.454)">
            <g transform="matrix(4.16667,0,0,4.16667,-272.433,61.4989)">
                <path d="M120.049,174.664L122.098,174.664L122.098,175.758L122.144,175.758C122.69,174.877 123.632,174.453 124.541,174.453C126.833,174.453 127.411,175.742 127.411,177.686L127.411,182.514L125.254,182.514L125.254,178.08C125.254,176.79 124.875,176.154 123.875,176.154C122.705,176.154 122.203,176.806 122.203,178.399L122.203,182.514L120.049,182.514L120.049,174.664Z" style="fill:white;fill-rule:nonzero;"/>
            </g>
        </g>
        <g transform="matrix(1,0,0,1,532.181,-272.454)">
            <g transform="matrix(4.16667,0,0,4.16667,-272.612,61.6386)">
                <path d="M131.515,173.57L129.359,173.57L129.359,171.674L131.515,171.674L131.515,173.57ZM129.359,174.664L131.515,174.664L131.515,182.514L129.359,182.514L129.359,174.664Z" style="fill:white;fill-rule:nonzero;"/>
            </g>
        </g>
        <g transform="matrix(1,0,0,1,532.181,-272.454)">
            <g transform="matrix(4.16667,0,0,4.16667,-272.433,61.4989)">
                <path d="M131.515,173.57L129.359,173.57L129.359,171.674L131.515,171.674L131.515,173.57ZM129.359,174.664L131.515,174.664L131.515,182.514L129.359,182.514L129.359,174.664Z" style="fill:white;fill-rule:nonzero;"/>
            </g>
        </g>
        <g transform="matrix(1,0,0,1,532.181,-272.454)">
            <g transform="matrix(4.16667,0,0,4.16667,-272.612,61.6386)">
                <path d="M133.463,171.674L135.619,171.674L135.619,175.758L135.664,175.758C136.209,174.877 137.152,174.453 137.957,174.453C140.248,174.453 140.826,175.742 140.826,177.686L140.826,182.514L138.669,182.514L138.669,178.08C138.669,176.79 138.29,176.154 137.289,176.154C136.12,176.154 135.619,176.806 135.619,178.399L135.619,182.514L133.463,182.514L133.463,171.674Z" style="fill:white;fill-rule:nonzero;"/>
            </g>
        </g>
        <g transform="matrix(1,0,0,1,532.181,-272.454)">
            <g transform="matrix(4.16667,0,0,4.16667,-272.433,61.4989)">
                <path d="M133.463,171.674L135.619,171.674L135.619,175.758L135.664,175.758C136.209,174.877 137.152,174.453 137.957,174.453C140.248,174.453 140.826,175.742 140.826,177.686L140.826,182.514L138.669,182.514L138.669,178.08C138.669,176.79 138.29,176.154 137.289,176.154C136.12,176.154 135.619,176.806 135.619,178.399L135.619,182.514L133.463,182.514L133.463,171.674Z" style="fill:white;fill-rule:nonzero;"/>
            </g>
        </g>
        <g transform="matrix(1,0,0,1,532.181,-272.454)">
            <g transform="matrix(4.16667,0,0,4.16667,-272.612,61.6386)">
                <path d="M146.274,174.453C148.748,174.453 150.342,176.092 150.342,178.596C150.342,181.086 148.748,182.724 146.274,182.724C143.816,182.724 142.221,181.086 142.221,178.596C142.221,176.092 143.816,174.453 146.274,174.453ZM146.274,181.101C147.747,181.101 148.187,179.841 148.187,178.596C148.187,177.335 147.747,176.077 146.274,176.077C144.817,176.077 144.376,177.335 144.376,178.596C144.376,179.841 144.817,181.101 146.274,181.101Z" style="fill:white;fill-rule:nonzero;"/>
            </g>
        </g>
        <g transform="matrix(1,0,0,1,532.181,-272.454)">
            <g transform="matrix(4.16667,0,0,4.16667,-272.433,61.4989)">
                <path d="M146.274,174.453C148.748,174.453 150.342,176.092 150.342,178.596C150.342,181.086 148.748,182.724 146.274,182.724C143.816,182.724 142.221,181.086 142.221,178.596C142.221,176.092 143.816,174.453 146.274,174.453ZM146.274,181.101C147.747,181.101 148.187,179.841 148.187,178.596C148.187,177.335 147.747,176.077 146.274,176.077C144.817,176.077 144.376,177.335 144.376,178.596C144.376,179.841 144.817,181.101 146.274,181.101Z" style="fill:white;fill-rule:nonzero;"/>
            </g>
        </g>
        <g transform="matrix(1,0,0,1,532.181,-272.454)">
            <g transform="matrix(4.16667,0,0,4.16667,-272.612,61.6386)">
                <path d="M155.581,182.514L153.182,182.514L150.497,174.664L152.757,174.664L154.412,180.024L154.443,180.024L156.098,174.664L158.237,174.664L155.581,182.514Z" style="fill:white;fill-rule:nonzero;"/>
            </g>
        </g>
        <g transform="matrix(1,0,0,1,532.181,-272.454)">
            <g transform="matrix(4.16667,0,0,4.16667,-272.433,61.4989)">
                <path d="M155.581,182.514L153.182,182.514L150.497,174.664L152.757,174.664L154.412,180.024L154.443,180.024L156.098,174.664L158.237,174.664L155.581,182.514Z" style="fill:white;fill-rule:nonzero;"/>
            </g>
        </g>
        <g transform="matrix(1,0,0,1,532.181,-272.454)">
            <g transform="matrix(4.16667,0,0,4.16667,-272.612,61.6386)">
                <path d="M159.133,174.664L161.182,174.664L161.182,175.758L161.227,175.758C161.773,174.877 162.714,174.453 163.626,174.453C165.917,174.453 166.494,175.742 166.494,177.686L166.494,182.514L164.338,182.514L164.338,178.08C164.338,176.79 163.959,176.154 162.958,176.154C161.789,176.154 161.289,176.806 161.289,178.399L161.289,182.514L159.133,182.514L159.133,174.664Z" style="fill:white;fill-rule:nonzero;"/>
            </g>
        </g>
        <g transform="matrix(1,0,0,1,532.181,-272.454)">
            <g transform="matrix(4.16667,0,0,4.16667,-272.433,61.4989)">
                <path d="M159.133,174.664L161.182,174.664L161.182,175.758L161.227,175.758C161.773,174.877 162.714,174.453 163.626,174.453C165.917,174.453 166.494,175.742 166.494,177.686L166.494,182.514L164.338,182.514L164.338,178.08C164.338,176.79 163.959,176.154 162.958,176.154C161.789,176.154 161.289,176.806 161.289,178.399L161.289,182.514L159.133,182.514L159.133,174.664Z" style="fill:white;fill-rule:nonzero;"/>
            </g>
        </g>
        <g transform="matrix(1,0,0,1,532.181,-272.454)">
            <g transform="matrix(4.16667,0,0,4.16667,-272.612,61.6386)">
                <path d="M168.043,177.079C168.164,175.06 169.971,174.453 171.731,174.453C173.294,174.453 175.177,174.802 175.177,176.683L175.177,180.766C175.177,181.481 175.252,182.194 175.45,182.514L173.264,182.514C173.187,182.271 173.128,182.011 173.112,181.754C172.429,182.467 171.427,182.724 170.472,182.724C168.984,182.724 167.8,181.982 167.8,180.373C167.8,178.596 169.136,178.171 170.472,177.99C171.79,177.792 173.021,177.838 173.021,176.957C173.021,176.031 172.384,175.895 171.624,175.895C170.805,175.895 170.274,176.23 170.197,177.079L168.043,177.079ZM173.021,178.673C172.658,178.992 171.897,179.006 171.229,179.128C170.562,179.264 169.956,179.492 169.956,180.282C169.956,181.086 170.577,181.285 171.275,181.285C172.96,181.285 173.021,179.948 173.021,179.478L173.021,178.673Z" style="fill:white;fill-rule:nonzero;"/>
            </g>
        </g>
        <g transform="matrix(1,0,0,1,532.181,-272.454)">
            <g transform="matrix(4.16667,0,0,4.16667,-272.433,61.4989)">
                <path d="M168.043,177.079C168.164,175.06 169.971,174.453 171.731,174.453C173.294,174.453 175.177,174.802 175.177,176.683L175.177,180.766C175.177,181.481 175.252,182.194 175.45,182.514L173.264,182.514C173.187,182.271 173.128,182.011 173.112,181.754C172.429,182.467 171.427,182.724 170.472,182.724C168.984,182.724 167.8,181.982 167.8,180.373C167.8,178.596 169.136,178.171 170.472,177.99C171.79,177.792 173.021,177.838 173.021,176.957C173.021,176.031 172.384,175.895 171.624,175.895C170.805,175.895 170.274,176.23 170.197,177.079L168.043,177.079ZM173.021,178.673C172.658,178.992 171.897,179.006 171.229,179.128C170.562,179.264 169.956,179.492 169.956,180.282C169.956,181.086 170.577,181.285 171.275,181.285C172.96,181.285 173.021,179.948 173.021,179.478L173.021,178.673Z" style="fill:white;fill-rule:nonzero;"/>
            </g>
        </g>
        <g transform="matrix(1,0,0,1,532.181,-272.454)">
            <g transform="matrix(4.16667,0,0,4.16667,0,0)">
                <path d="M98.456,177.079C98.576,175.06 100.382,174.453 102.143,174.453C103.707,174.453 105.588,174.802 105.588,176.683L105.588,180.766C105.588,181.481 105.664,182.194 105.862,182.514L103.676,182.514C103.599,182.271 103.539,182.011 103.524,181.754C102.841,182.467 101.838,182.724 100.883,182.724C99.394,182.724 98.211,181.982 98.211,180.373C98.211,178.596 99.547,178.171 100.883,177.99C102.202,177.792 103.433,177.838 103.433,176.957C103.433,176.031 102.795,175.895 102.037,175.895C101.216,175.895 100.686,176.23 100.609,177.079L98.456,177.079ZM103.433,178.673C103.069,178.992 102.31,179.006 101.641,179.128C100.975,179.264 100.367,179.492 100.367,180.282C100.367,181.086 100.988,181.285 101.686,181.285C103.372,181.285 103.433,179.948 103.433,179.478L103.433,178.673Z" style="fill:white;fill-rule:nonzero;"/>
            </g>
        </g>
        <g transform="matrix(1,0,0,1,532.181,-272.454)">
            <g transform="matrix(4.16667,0,0,4.16667,-555.102,122.993)">
                <path d="M184.411,182.514L182.014,182.514L179.326,174.664L181.587,174.664L183.242,180.024L183.272,180.024L184.927,174.664L187.067,174.664L184.411,182.514Z" style="fill:white;fill-rule:nonzero;"/>
            </g>
        </g>
        <g transform="matrix(1,0,0,1,532.181,-272.454)">
            <g transform="matrix(4.16667,0,0,4.16667,-555.102,122.993)">
                <path d="M191.114,171.674L195.804,171.674C198.505,171.674 199.552,173.391 199.552,175.15C199.552,176.912 198.505,178.628 195.804,178.628L193.497,178.628L193.497,182.514L191.114,182.514L191.114,171.674ZM193.497,176.774L195.149,176.774C196.258,176.774 197.245,176.531 197.245,175.15C197.245,173.77 196.258,173.525 195.149,173.525L193.497,173.525L193.497,176.774Z" style="fill:white;fill-rule:nonzero;"/>
            </g>
        </g>
        <g transform="matrix(1,0,0,1,532.181,-272.454)">
            <g transform="matrix(4.16667,0,0,4.16667,-555.102,122.993)">
                <path d="M200.562,174.664L202.611,174.664L202.611,176.122L202.642,176.122C203.036,175.135 204.099,174.453 205.146,174.453C205.298,174.453 205.481,174.481 205.617,174.529L205.617,176.531C205.419,176.486 205.101,176.456 204.842,176.456C203.264,176.456 202.718,177.595 202.718,178.976L202.718,182.514L200.562,182.514L200.562,174.664Z" style="fill:white;fill-rule:nonzero;"/>
            </g>
        </g>
        <g transform="matrix(1,0,0,1,532.181,-272.454)">
            <g transform="matrix(4.16667,0,0,4.16667,-555.102,122.993)">
                <path d="M206.126,177.079C206.248,175.06 208.053,174.453 209.816,174.453C211.379,174.453 213.261,174.802 213.261,176.683L213.261,180.766C213.261,181.481 213.337,182.194 213.534,182.514L211.349,182.514C211.272,182.271 211.213,182.011 211.196,181.754C210.514,182.467 209.512,182.724 208.556,182.724C207.068,182.724 205.884,181.982 205.884,180.373C205.884,178.596 207.219,178.171 208.556,177.99C209.875,177.792 211.105,177.838 211.105,176.957C211.105,176.031 210.468,175.895 209.709,175.895C208.89,175.895 208.359,176.23 208.282,177.079L206.126,177.079ZM211.105,178.673C210.741,178.992 209.982,179.006 209.314,179.128C208.647,179.264 208.04,179.492 208.04,180.282C208.04,181.086 208.662,181.285 209.36,181.285C211.045,181.285 211.105,179.948 211.105,179.478L211.105,178.673Z" style="fill:white;fill-rule:nonzero;"/>
            </g>
        </g>
        <g transform="matrix(1,0,0,1,532.181,-272.454)">
            <g transform="matrix(4.16667,0,0,4.16667,-555.102,122.993)">
                <path d="M214.554,180.889L218.527,176.29L214.748,176.29L214.748,174.664L221.277,174.664L221.277,176.29L217.193,180.889L221.558,180.889L221.558,182.514L214.554,182.514L214.554,180.889Z" style="fill:white;fill-rule:nonzero;"/>
            </g>
        </g>
        <g transform="matrix(1,0,0,1,532.181,-272.454)">
            <g transform="matrix(4.16667,0,0,4.16667,-555.102,122.993)">
                <path d="M224.085,179.112C224.147,180.478 224.814,181.101 226.013,181.101C226.878,181.101 227.577,180.569 227.713,180.085L229.611,180.085C229.002,181.937 227.713,182.724 225.937,182.724C223.463,182.724 221.93,181.025 221.93,178.596C221.93,176.244 223.554,174.453 225.937,174.453C228.609,174.453 229.899,176.699 229.747,179.112L224.085,179.112ZM227.591,177.747C227.395,176.654 226.925,176.077 225.876,176.077C224.51,176.077 224.117,177.14 224.085,177.747L227.591,177.747Z" style="fill:white;fill-rule:nonzero;"/>
            </g>
        </g>
        <g transform="matrix(1,0,0,1,532.181,-272.454)">
            <g transform="matrix(4.16667,0,0,4.16667,0,0)">
                <path d="M61.443,179.112C61.502,180.478 62.17,181.101 63.37,181.101C64.236,181.101 64.935,180.569 65.069,180.085L66.967,180.085C66.36,181.937 65.069,182.724 63.295,182.724C60.821,182.724 59.287,181.025 59.287,178.596C59.287,176.244 60.911,174.453 63.295,174.453C65.966,174.453 67.256,176.699 67.104,179.112L61.443,179.112ZM64.949,177.747C64.751,176.654 64.281,176.077 63.234,176.077C61.868,176.077 61.473,177.14 61.443,177.747L64.949,177.747Z" style="fill:white;fill-rule:nonzero;"/>
            </g>
        </g>
        <g transform="matrix(1,0,0,1,532.181,-272.454)">
            <g transform="matrix(4.16667,0,0,4.16667,0,0)">
                <path d="M64.154,171.674L63.214,172.845L62.241,171.674L60.534,171.674L62.172,173.71L64.218,173.71L65.856,171.674L64.154,171.674Z" style="fill:white;fill-rule:nonzero;"/>
            </g>
        </g>
        <g transform="matrix(1,0,0,1,532.181,-272.454)">
            <g transform="matrix(4.16667,0,0,4.16667,0,0)">
                <path d="M104.582,171.674L102.296,171.674L100.959,173.751L102.573,173.751L104.582,171.674Z" style="fill:white;fill-rule:nonzero;"/>
            </g>
        </g>
    </g>
</svg>
