<?xml version="1.0" encoding="UTF-8" standalone="no"?>
<!DOCTYPE svg PUBLIC "-//W3C//DTD SVG 1.1//EN" "http://www.w3.org/Graphics/SVG/1.1/DTD/svg11.dtd">
<svg width="100%" height="100%" viewBox="0 0 234 234" version="1.1" xmlns="http://www.w3.org/2000/svg" xmlns:xlink="http://www.w3.org/1999/xlink" xml:space="preserve" xmlns:serif="http://www.serif.com/" style="fill-rule:evenodd;clip-rule:evenodd;stroke-linejoin:round;stroke-miterlimit:2;">
    <g transform="matrix(1,0,0,1,-11.5422,-11.888)">
        <g transform="matrix(0.133333,0,0,-0.133333,0,257.333)">
            <path id="path16" d="M86.566,1840.83L945.938,1840.83L945.938,86.445L86.566,86.445L86.566,1840.83" style="fill:rgb(200,20,41);"/>
        </g>
        <g transform="matrix(0.133333,0,0,-0.133333,0,257.333)">
            <path id="path18" d="M980.047,1840.84L1840.9,1840.84L1840.9,86.445L980.047,86.445L980.047,1840.84" style="fill:rgb(200,20,41);"/>
        </g>
        <g transform="matrix(0.133333,0,0,-0.133333,0,257.333)">
            <path id="path20" d="M308.953,1565.27C301.414,1565.27 295.516,1565.85 290.691,1566.81L290.691,1640.61C294.855,1641.27 302.262,1642.16 311.988,1642.16C328.758,1642.16 356.867,1637.37 356.867,1605.24C356.867,1579.83 339.402,1565.27 308.953,1565.27ZM371.809,1652.83C358.422,1664.86 338.098,1670.95 311.402,1670.95C292.121,1670.95 274.68,1669.48 259.504,1666.6L256.387,1666L256.387,1455.27L290.691,1455.27L290.691,1537.39C296.367,1536.52 302.379,1536.18 308.324,1536.18C335.754,1536.18 359.133,1544.61 374.156,1559.98C385.688,1572.18 391.473,1587.89 391.473,1606.79C391.473,1625.49 384.504,1641.84 371.809,1652.83" style="fill:rgb(255,225,0);"/>
        </g>
        <g transform="matrix(0.133333,0,0,-0.133333,0,257.333)">
            <path id="path22" d="M568.199,1608C568.199,1586.51 551.434,1572.62 525.484,1572.62L502.043,1572.62L502.043,1640.75C505.863,1641.48 513.129,1642.47 524.551,1642.47C544.488,1642.47 568.199,1636.48 568.199,1608ZM594.145,1516.66C589.078,1537.59 580.117,1550.82 567.371,1557.85C589.148,1567.78 602.82,1587.24 602.82,1610.77C602.82,1627.71 596.434,1643.06 585.273,1652.83C571.652,1665.19 551.742,1670.95 522.707,1670.95C504.793,1670.95 484.91,1669.17 470.813,1666.28L467.738,1665.66L467.738,1455.27L502.043,1455.27L502.043,1544.74L523.316,1544.74C545.141,1544.74 555.441,1534.68 561.25,1507.63C567.5,1478.61 571.738,1463.07 575.168,1457.19L576.254,1455.27L612.254,1455.27L609.449,1460.81C605.551,1468.63 600.441,1489.8 594.145,1516.66" style="fill:rgb(255,225,0);"/>
        </g>
        <g transform="matrix(0.133333,0,0,-0.133333,0,257.333)">
            <path id="path24" d="M793.555,1548.77L742.094,1548.77C744.945,1557.24 760.605,1603.45 760.605,1603.45C763.477,1611.91 765.395,1620.45 767.5,1628.97C769.48,1621.89 774.781,1603.13 774.781,1603.13C774.781,1603.12 788.746,1562.8 793.555,1548.77ZM749.621,1669.48L676.883,1455.32L712.555,1455.32C712.555,1455.32 732.395,1515.43 733.992,1520.29L801.707,1520.29C803.336,1515.5 823.75,1455.32 823.75,1455.32L860.363,1455.32L787.262,1669.48L749.621,1669.48" style="fill:rgb(255,225,0);"/>
        </g>
        <g transform="matrix(0.133333,0,0,-0.133333,0,257.333)">
            <path id="path26" d="M1204.5,1455.32L1204.5,1552.13L1112.27,1552.13L1112.27,1455.32L1077.67,1455.32L1077.67,1669.48L1112.27,1669.48L1112.27,1583.08L1204.5,1583.08L1204.5,1669.48L1239.11,1669.48L1239.11,1455.32L1204.5,1455.32" style="fill:rgb(255,225,0);"/>
        </g>
        <g transform="matrix(0.133333,0,0,-0.133333,0,257.333)">
            <path id="path28" d="M1437.33,1548.77L1385.87,1548.77C1388.72,1557.24 1404.38,1603.45 1404.38,1603.45C1407.31,1611.99 1409.18,1620.5 1411.27,1629C1413.32,1621.74 1418.56,1603.13 1418.56,1603.13C1418.58,1603.12 1432.51,1562.8 1437.33,1548.77ZM1393.42,1669.48L1320.64,1455.32L1356.33,1455.32C1356.33,1455.32 1376.19,1515.43 1377.75,1520.29L1445.49,1520.29C1447.11,1515.5 1467.54,1455.32 1467.54,1455.32L1504.15,1455.32L1431.07,1669.48L1393.42,1669.48" style="fill:rgb(255,225,0);"/>
        </g>
        <g transform="matrix(0.133333,0,0,-0.133333,0,257.333)">
            <path id="path30" d="M308.953,1179.7C301.414,1179.7 295.516,1180.32 290.691,1181.29L290.691,1255.08C294.855,1255.75 302.262,1256.62 311.988,1256.62C328.758,1256.62 356.867,1251.82 356.867,1219.73C356.867,1194.28 339.402,1179.7 308.953,1179.7ZM371.809,1267.31C358.422,1279.3 338.098,1285.42 311.402,1285.42C292.121,1285.42 274.68,1283.94 259.504,1281.04L256.387,1280.46L256.387,1069.74L290.691,1069.74L290.691,1151.88C296.367,1150.98 302.379,1150.62 308.324,1150.62C335.754,1150.62 359.133,1159.09 374.156,1174.43C385.688,1186.61 391.473,1202.35 391.473,1221.23C391.473,1239.94 384.504,1256.29 371.809,1267.31" style="fill:rgb(255,225,0);"/>
        </g>
        <g transform="matrix(0.133333,0,0,-0.133333,0,257.333)">
            <path id="path32" d="M568.199,1222.46C568.199,1200.96 551.434,1187.07 525.484,1187.07L502.043,1187.07L502.043,1255.22C505.863,1255.94 513.129,1256.92 524.551,1256.92C544.488,1256.92 568.199,1250.95 568.199,1222.46ZM594.145,1131.14C589.078,1152.03 580.117,1165.29 567.398,1172.29C589.148,1182.27 602.82,1201.68 602.82,1225.2C602.82,1242.17 596.434,1257.5 585.273,1267.31C571.652,1279.64 551.742,1285.42 522.707,1285.42C504.793,1285.42 484.91,1283.63 470.813,1280.74L467.738,1280.12L467.738,1069.74L502.043,1069.74L502.043,1159.18L523.316,1159.18C545.141,1159.18 555.441,1149.13 561.25,1122.11C567.5,1093.1 571.738,1077.53 575.168,1071.68L576.254,1069.74L612.254,1069.74L609.449,1075.3C605.551,1083.09 600.441,1104.26 594.145,1131.14" style="fill:rgb(255,225,0);"/>
        </g>
        <g transform="matrix(0.133333,0,0,-0.133333,0,257.333)">
            <path id="path34" d="M793.555,1163.23L742.094,1163.23C744.945,1171.7 760.605,1217.91 760.605,1217.91C763.457,1226.31 765.395,1234.88 767.5,1243.42C769.48,1236.42 774.781,1217.6 774.781,1217.6C774.781,1217.58 788.746,1177.24 793.555,1163.23ZM749.621,1283.91L676.883,1069.79L712.555,1069.79C712.555,1069.79 732.395,1129.91 733.992,1134.75L801.707,1134.75C803.336,1129.95 823.75,1069.79 823.75,1069.79L860.363,1069.79L787.262,1283.91L749.621,1283.91" style="fill:rgb(255,225,0);"/>
        </g>
        <g transform="matrix(0.133333,0,0,-0.133333,0,257.333)">
            <path id="path36" d="M1166.86,1156.79L1208.49,1156.79L1208.49,1101.71C1201.71,1099 1190.26,1097.36 1176.79,1097.36C1130.06,1097.36 1100.99,1127.83 1100.99,1176.85C1100.99,1225.73 1131.32,1256.04 1180.16,1256.04C1197.89,1256.04 1211.88,1253.34 1224.19,1247.54L1228.21,1245.66L1237.21,1274.77L1234.25,1276.2C1224.8,1280.74 1205.12,1286.07 1180.79,1286.07C1111.61,1286.07 1065.16,1241.68 1065.16,1175.64C1065.16,1143.38 1076.06,1114.36 1095.09,1095.99C1115.07,1076.9 1141.2,1067.66 1174.98,1067.66C1207.39,1067.66 1232.99,1076.51 1240.07,1079.22L1242.52,1080.19L1242.52,1185.9L1166.86,1185.9L1166.86,1156.79" style="fill:rgb(255,225,0);"/>
        </g>
        <g transform="matrix(0.133333,0,0,-0.133333,0,257.333)">
            <path id="path38" d="M1334.29,1284.04L1334.29,1158.59C1334.29,1099.24 1361.96,1066.54 1412.22,1066.54C1464.31,1066.54 1494.17,1100.41 1494.17,1159.51L1494.17,1284.04L1459.57,1284.04L1459.57,1157.64C1459.57,1117.29 1443.5,1095.94 1413.14,1095.94C1384.61,1095.94 1368.89,1117.85 1368.89,1157.64L1368.89,1284.04L1334.29,1284.04" style="fill:rgb(255,225,0);"/>
        </g>
        <g transform="matrix(0.133333,0,0,-0.133333,0,257.333)">
            <path id="path40" d="M1718.52,1099.82L1718.52,1069.79L1594.41,1069.79L1594.41,1283.91L1713.92,1283.91L1713.92,1253.91L1629.07,1253.91L1629.07,1196.32L1709.03,1196.32L1709.03,1166.62L1629.07,1166.62L1629.07,1099.82L1718.52,1099.82" style="fill:rgb(255,225,0);"/>
        </g>
        <g transform="matrix(0.133333,0,0,-0.133333,0,257.333)">
            <path id="path42" d="M308.953,794.27C301.438,794.27 295.531,794.848 290.691,795.801L290.691,869.609C295.004,870.289 302.285,871.145 311.988,871.145C328.758,871.145 356.867,866.352 356.867,834.27C356.867,808.816 339.402,794.27 308.953,794.27ZM371.809,881.84C358.422,893.855 338.098,899.953 311.402,899.953C292.121,899.953 274.68,898.5 259.504,895.598L256.387,894.992L256.387,684.273L290.691,684.273L290.691,766.395C296.508,765.508 302.699,765.152 308.324,765.152C335.754,765.152 359.133,773.629 374.156,788.988C385.688,801.164 391.473,816.883 391.473,835.777C391.473,854.48 384.504,870.82 371.809,881.84" style="fill:rgb(255,225,0);"/>
        </g>
        <g transform="matrix(0.133333,0,0,-0.133333,0,257.333)">
            <path id="path44" d="M568.199,836.996C568.199,815.488 551.434,801.605 525.484,801.605L502.043,801.605L502.043,869.754C505.863,870.484 513.129,871.484 524.551,871.484C544.488,871.484 568.199,865.48 568.199,836.996ZM594.145,745.66C589.078,766.555 580.117,779.824 567.371,786.832C589.148,796.801 602.82,816.238 602.82,839.754C602.82,856.707 596.434,872.055 585.273,881.84C571.652,894.176 551.742,899.953 522.707,899.953C504.754,899.953 484.863,898.164 470.785,895.293L467.738,894.629L467.738,684.273L502.043,684.273L502.043,773.734L523.316,773.734C545.141,773.734 555.441,763.684 561.25,736.633C567.5,707.629 571.738,692.066 575.168,686.184L576.254,684.273L612.254,684.273L609.449,689.84C605.551,697.629 600.441,718.809 594.145,745.66" style="fill:rgb(255,225,0);"/>
        </g>
        <g transform="matrix(0.133333,0,0,-0.133333,0,257.333)">
            <path id="path46" d="M793.555,777.766L742.094,777.766C744.945,786.234 760.605,832.457 760.605,832.457C763.477,840.867 765.395,849.434 767.5,857.949C769.48,850.883 774.781,832.133 774.781,832.133C774.781,832.133 788.746,791.777 793.555,777.766ZM749.621,898.477L676.883,684.324L712.555,684.324C712.555,684.324 732.395,744.426 733.992,749.266L801.707,749.266C803.336,744.504 823.75,684.324 823.75,684.324L860.363,684.324L787.262,898.477L749.621,898.477" style="fill:rgb(255,225,0);"/>
        </g>
        <g transform="matrix(0.133333,0,0,-0.133333,0,257.333)">
            <path id="path48" d="M1166.86,771.328L1208.49,771.328L1208.49,716.215C1201.7,713.551 1190.26,711.906 1176.79,711.906C1130.06,711.906 1100.99,742.375 1100.99,791.387C1100.99,840.238 1131.32,870.578 1180.16,870.578C1197.92,870.578 1211.88,867.895 1224.19,862.094L1228.21,860.191L1237.21,889.305L1234.21,890.758C1224.77,895.293 1205.1,900.582 1180.79,900.582C1111.61,900.582 1065.16,856.23 1065.16,790.156C1065.16,757.926 1076.06,728.922 1095.09,710.531C1115.07,691.434 1141.2,682.176 1174.98,682.176C1207.39,682.176 1232.99,691.051 1240.07,693.781L1242.52,694.719L1242.52,800.445L1166.86,800.445L1166.86,771.328" style="fill:rgb(255,225,0);"/>
        </g>
        <g transform="matrix(0.133333,0,0,-0.133333,0,257.333)">
            <path id="path50" d="M1436.78,777.766L1385.34,777.766C1388.19,786.234 1403.86,832.457 1403.86,832.457C1406.67,840.703 1408.88,848.98 1410.94,857.32C1413.04,849.816 1418.04,832.133 1418.04,832.133C1418.04,832.133 1431.96,791.777 1436.78,777.766ZM1392.89,898.477L1320.13,684.324L1355.82,684.324C1355.82,684.324 1375.63,744.426 1377.25,749.266L1444.98,749.266C1446.6,744.504 1467,684.324 1467,684.324L1503.61,684.324L1430.56,898.477L1392.89,898.477" style="fill:rgb(255,225,0);"/>
        </g>
        <g transform="matrix(0.133333,0,0,-0.133333,0,257.333)">
            <path id="path52" d="M308.953,408.781C301.438,408.781 295.531,409.363 290.691,410.328L290.691,484.145C295.004,484.828 302.285,485.676 311.988,485.676C328.758,485.676 356.867,480.875 356.867,448.75C356.867,423.355 339.402,408.781 308.953,408.781ZM371.809,496.352C358.445,508.371 338.121,514.469 311.402,514.469C292.191,514.469 274.727,513.008 259.504,510.121L256.387,509.523L256.387,298.793L290.691,298.793L290.691,380.957C296.508,380.043 302.699,379.688 308.324,379.688C335.754,379.688 359.133,388.141 374.156,403.504C385.688,415.691 391.473,431.426 391.473,450.305C391.473,469.004 384.504,485.367 371.809,496.352" style="fill:rgb(255,225,0);"/>
        </g>
        <g transform="matrix(0.133333,0,0,-0.133333,0,257.333)">
            <path id="path54" d="M568.199,451.535C568.199,430.023 551.434,416.133 525.484,416.133L502.043,416.133L502.043,484.281C505.863,485.012 513.129,485.988 524.551,485.988C544.488,485.988 568.199,480.012 568.199,451.535ZM594.145,360.188C589.078,381.105 580.117,394.363 567.371,401.359C589.148,411.344 602.82,430.758 602.82,454.27C602.82,471.254 596.434,486.594 585.273,496.352C571.656,508.703 551.754,514.469 522.707,514.469C504.793,514.469 484.91,512.703 470.813,509.793L467.738,509.176L467.738,298.793L502.043,298.793L502.043,388.27L523.316,388.27C545.141,388.27 555.441,378.199 561.25,351.148C567.371,322.555 571.789,306.555 575.168,300.703L576.254,298.793L612.254,298.793L609.449,304.336C605.551,312.176 600.441,333.336 594.145,360.188" style="fill:rgb(255,225,0);"/>
        </g>
        <g transform="matrix(0.133333,0,0,-0.133333,0,257.333)">
            <path id="path56" d="M793.555,392.297L742.094,392.297C744.945,400.777 760.605,446.961 760.605,446.961C763.477,455.406 765.395,463.953 767.5,472.488C769.48,465.422 774.781,446.672 774.781,446.672C774.781,446.637 788.746,406.313 793.555,392.297ZM749.621,512.984L676.883,298.852L712.555,298.852C712.555,298.852 732.395,358.953 733.992,363.797L801.707,363.797C803.336,359.012 823.75,298.852 823.75,298.852L860.363,298.852L787.262,512.984L749.621,512.984" style="fill:rgb(255,225,0);"/>
        </g>
        <g transform="matrix(0.133333,0,0,-0.133333,0,257.333)">
            <path id="path58" d="M1166.86,385.867L1208.49,385.867L1208.49,330.758C1201.71,328.055 1190.3,326.434 1176.79,326.434C1130.06,326.434 1100.99,356.875 1100.99,405.918C1100.99,454.785 1131.32,485.094 1180.16,485.094C1197.89,485.094 1211.88,482.41 1224.19,476.578L1228.21,474.711L1237.21,503.797L1234.25,505.258C1224.8,509.793 1205.12,515.121 1180.79,515.121C1111.61,515.121 1065.16,470.742 1065.16,404.664C1065.16,372.457 1076.06,343.453 1095.09,325.063C1115.07,305.973 1141.2,296.715 1174.98,296.715C1207.39,296.715 1232.99,305.578 1240.07,308.297L1242.52,309.254L1242.52,414.965L1166.86,414.965L1166.86,385.867" style="fill:rgb(255,225,0);"/>
        </g>
    </g>
</svg>
